<?xml version="1.0" encoding="utf-8"?>
<!-- Generated by IcoMoon.io -->
<!DOCTYPE svg PUBLIC "-//W3C//DTD SVG 1.1//EN" "http://www.w3.org/Graphics/SVG/1.1/DTD/svg11.dtd">
<svg version="1.1" xmlns="http://www.w3.org/2000/svg" xmlns:xlink="http://www.w3.org/1999/xlink" width="47" height="32" viewBox="0 0 47 32">
<path fill="#00b5e5" d="M26.081 15.832h0.938l0.577 0.89-1.059-0.072z"></path>
<path fill="#77cbea" d="M26.081 15.832l0.457-0.818-0.457-0.914-0.481 0.914z"></path>
<path fill="#006ab4" d="M26.081 15.832l0.457 0.818-0.457 0.938-0.481-0.938z"></path>
<path fill="#0090d4" d="M26.081 15.832l-0.481-0.818-1.035-0.048 0.577 0.866z"></path>
<path fill="#b3dfef" d="M26.37 15.663h0.962l0.553-0.866-1.035 0.048z"></path>
<path fill="#282878" d="M26.081 15.832l-0.481 0.818-1.035 0.072 0.577-0.89zM15.783 17.371c0.217 0.217 0.505 0.385 0.818 0.385 0.192 0 0.505-0.072 0.505-0.265 0-0.096-0.048-0.144-0.096-0.168-0.12-0.072-0.313-0.072-0.481-0.096-0.12-0.024-0.265-0.048-0.385-0.096-0.168-0.048-0.337-0.12-0.457-0.241s-0.217-0.313-0.217-0.529c0-0.457 0.409-0.938 1.179-0.938 0.674 0 1.059 0.289 1.251 0.409l-0.505 0.481c-0.265-0.217-0.505-0.289-0.698-0.289-0.313 0-0.409 0.12-0.409 0.217 0 0.168 0.168 0.192 0.457 0.241 0.577 0.096 1.227 0.265 1.227 0.914 0 0.674-0.674 0.986-1.323 0.986-0.77 0-1.179-0.385-1.371-0.553l0.505-0.457zM18.334 15.567h-0.409v0.505h0.409v1.347c0 0.265 0 0.457 0.12 0.626 0.168 0.265 0.481 0.265 0.77 0.265 0.144 0 0.265-0.024 0.433-0.048v-0.65h-0.289c-0.217 0-0.217-0.144-0.217-0.313v-1.275h0.553v-0.505h-0.553v-0.866h-0.818v0.914zM20.812 16.313c0.024-0.096 0.072-0.337 0.433-0.337 0.289 0 0.313 0.217 0.313 0.337v0.144c-0.361 0.072-0.89 0.168-1.107 0.265-0.241 0.096-0.602 0.361-0.602 0.818 0 0.385 0.265 0.866 0.914 0.866 0.409 0 0.65-0.168 0.866-0.337v0.265h0.818c-0.072-0.096-0.072-0.144-0.072-0.433v-1.636c0-0.722-0.842-0.818-1.179-0.818s-0.674 0.048-0.914 0.241c-0.265 0.192-0.289 0.433-0.289 0.626h0.818zM21.558 16.986c0 0.289-0.024 0.553-0.289 0.722-0.096 0.048-0.192 0.096-0.289 0.096-0.192 0-0.313-0.144-0.313-0.289 0-0.217 0.217-0.289 0.361-0.361l0.529-0.168zM23.555 15.519h-0.818v2.815h0.842v-1.588c0-0.361 0.12-0.409 0.505-0.481l0.265-0.048v-0.722c-0.433 0.048-0.626 0.168-0.818 0.313v-0.289z"></path>
<path fill="#0090d4" d="M6.111 14.508v1.251c0.12-0.12 0.337-0.337 0.818-0.337 0.457 0 1.203 0.313 1.203 1.444 0 0.289-0.048 0.626-0.168 0.866-0.144 0.313-0.481 0.674-1.059 0.674-0.505 0-0.722-0.265-0.818-0.361l0.024 0.289h-0.818v-3.826h0.818zM6.087 16.89c0 0.217 0.024 0.457 0.12 0.626s0.313 0.265 0.481 0.265c0.217 0 0.361-0.12 0.433-0.217 0.144-0.192 0.168-0.577 0.168-0.698 0-0.457-0.144-0.866-0.601-0.842-0.601 0.048-0.601 0.698-0.601 0.866zM9.215 14.532h-0.818v3.801h0.818v-3.802zM11.26 17.275c0 0.144 0 0.289-0.192 0.409-0.12 0.072-0.241 0.072-0.289 0.072-0.168 0-0.289-0.072-0.337-0.144-0.072-0.096-0.072-0.217-0.072-0.337v-1.756h-0.842v1.756c0 0.457 0.024 0.626 0.168 0.818 0.192 0.265 0.529 0.289 0.722 0.289s0.361-0.048 0.529-0.12c0.144-0.072 0.192-0.12 0.289-0.217v0.265h0.818v-2.791h-0.818v1.756zM15.206 17.612c-0.096 0.144-0.192 0.289-0.337 0.409-0.241 0.217-0.601 0.409-1.059 0.409-0.842 0-1.42-0.529-1.42-1.444 0-0.674 0.337-1.54 1.444-1.54 0.168 0 0.65 0.024 1.011 0.409s0.385 0.938 0.409 1.251h-2.021c0 0.361 0.192 0.698 0.65 0.698s0.601-0.289 0.722-0.505l0.601 0.313zM14.388 16.577c-0.024-0.12-0.048-0.265-0.144-0.409-0.096-0.096-0.265-0.144-0.409-0.144-0.192 0-0.337 0.096-0.409 0.192-0.12 0.12-0.144 0.265-0.168 0.361h1.131z"></path>
<path fill="#282878" d="M28.271 14.773h0.313v0.265c0.072-0.072 0.096-0.12 0.168-0.168 0.12-0.096 0.313-0.168 0.505-0.168 0.409 0 0.866 0.337 0.866 1.011 0 0.529-0.289 1.011-0.89 1.011-0.265 0-0.481-0.096-0.65-0.289v1.131h-0.313v-2.791zM28.583 15.759c0 0.409 0.217 0.698 0.602 0.698 0.12 0 0.241-0.024 0.337-0.096s0.265-0.265 0.265-0.65c0-0.457-0.241-0.722-0.626-0.698-0.361 0.024-0.577 0.313-0.577 0.746zM30.677 14.773v0.337c0.192-0.361 0.529-0.361 0.65-0.361v0.337h-0.144c-0.192 0-0.337 0.072-0.433 0.217s-0.072 0.313-0.072 0.481v0.89h-0.313v-1.901h0.313zM32.265 16.746c-0.65 0-0.938-0.481-0.938-0.986 0-0.433 0.217-1.035 0.938-1.035 0.626 0 0.914 0.481 0.914 1.011 0 0.577-0.337 1.011-0.914 1.011zM32.818 15.471c-0.072-0.385-0.313-0.481-0.529-0.481-0.433 0-0.602 0.337-0.602 0.77 0 0.409 0.168 0.722 0.577 0.722 0.529 0 0.577-0.553 0.577-0.746 0-0.12 0-0.217-0.024-0.265zM33.732 14.773v0.265c0.241-0.265 0.433-0.313 0.577-0.313 0.313 0 0.433 0.192 0.505 0.361 0.168-0.168 0.361-0.361 0.626-0.361 0.241 0 0.433 0.144 0.529 0.337 0.048 0.12 0.048 0.241 0.048 0.433v1.179h-0.313v-1.107c0-0.168 0-0.241-0.024-0.313-0.072-0.217-0.265-0.241-0.337-0.241-0.144 0-0.289 0.072-0.361 0.168-0.096 0.12-0.12 0.192-0.12 0.433v1.059h-0.313v-1.227c0-0.072 0-0.217-0.072-0.313-0.048-0.072-0.144-0.12-0.289-0.12-0.12 0-0.265 0.048-0.361 0.144-0.12 0.12-0.12 0.217-0.12 0.385v1.131h-0.313v-1.901h0.337zM37.197 16.746c-0.65 0-0.938-0.481-0.938-0.986 0-0.433 0.217-1.035 0.938-1.035 0.626 0 0.914 0.481 0.914 1.011 0.024 0.577-0.337 1.011-0.914 1.011zM37.75 15.471c-0.072-0.385-0.313-0.481-0.529-0.481-0.433 0-0.602 0.337-0.602 0.77 0 0.409 0.168 0.722 0.577 0.722 0.529 0 0.577-0.553 0.577-0.746 0-0.12 0-0.217-0.024-0.265zM38.761 14.773h0.337v0.265h-0.337v1.083c0 0.217 0 0.313 0.144 0.313 0.072 0 0.144-0.024 0.217-0.048v0.265c-0.048 0-0.192 0.024-0.313 0.024-0.361 0-0.361-0.192-0.361-0.433v-1.227h-0.313v-0.265h0.313v-0.601h0.337v0.626zM40.95 16.096c-0.048 0.12-0.217 0.65-0.866 0.65-0.553 0-0.938-0.385-0.938-1.035 0-0.722 0.505-0.986 0.914-0.986 0.361 0 0.722 0.192 0.842 0.674 0.048 0.168 0.048 0.313 0.048 0.385h-1.444c0 0.313 0.168 0.722 0.602 0.722 0.289 0 0.457-0.192 0.505-0.433l0.337 0.024zM40.589 15.543c-0.024-0.505-0.385-0.577-0.553-0.577-0.265 0-0.505 0.192-0.529 0.577h1.083z"></path>
</svg>
