<?xml version="1.0" standalone="no"?>
<!DOCTYPE svg PUBLIC "-//W3C//DTD SVG 20010904//EN"
 "http://www.w3.org/TR/2001/REC-SVG-20010904/DTD/svg10.dtd">
<svg version="1.0" xmlns="http://www.w3.org/2000/svg"
 width="134.000000pt" height="414.000000pt" viewBox="0 0 134.000000 414.000000"
 preserveAspectRatio="xMidYMid meet">
<metadata>
Created by potrace 1.13, written by Peter Selinger 2001-2015
</metadata>
<g transform="translate(0.000000,414.000000) scale(0.100000,-0.100000)"
fill="#000000" stroke="none">
<path d="M300 4126 c0 -8 -11 -24 -25 -37 -13 -13 -25 -30 -25 -37 0 -8 -20
-37 -45 -65 -53 -61 -107 -160 -141 -260 -35 -101 -46 -252 -42 -552 l3 -254
61 -63 c80 -82 94 -111 94 -195 0 -79 -14 -108 -90 -185 -31 -31 -54 -65 -60
-89 -7 -26 -10 -382 -8 -1071 4 -1147 0 -1079 71 -1184 43 -65 95 -89 237
-111 171 -26 562 -24 719 5 144 26 182 50 228 142 18 36 37 94 43 130 13 89
14 2042 0 2091 -6 21 -31 58 -60 87 -76 77 -90 106 -90 185 0 84 14 113 94
195 l61 63 -1 342 -1 342 -27 90 c-34 112 -92 225 -151 292 -25 28 -45 58 -45
66 0 8 -16 31 -36 51 l-36 36 -364 0 c-305 0 -364 -2 -364 -14z"/>
</g>
</svg>
