<?xml version="1.0" standalone="no"?>
<!DOCTYPE svg PUBLIC "-//W3C//DTD SVG 20010904//EN"
 "http://www.w3.org/TR/2001/REC-SVG-20010904/DTD/svg10.dtd">
<svg version="1.0" xmlns="http://www.w3.org/2000/svg"
 width="134.000000pt" height="77.000000pt" viewBox="0 0 134.000000 77.000000"
 preserveAspectRatio="xMidYMid meet">
<metadata>
Created by potrace 1.13, written by Peter Selinger 2001-2015
</metadata>
<g transform="translate(0.000000,77.000000) scale(0.100000,-0.100000)"
fill="#000000" stroke="none">
<path d="M573 593 c-8 -3 -13 -25 -13 -62 0 -55 -1 -58 -32 -72 -25 -11 -34
-21 -36 -44 -3 -26 -15 -37 -82 -78 -43 -26 -89 -47 -102 -47 -53 -1 -68 -41
-68 -181 l0 -109 423 2 422 3 3 85 c2 47 -2 109 -8 137 -12 54 -12 54 -70 65
-8 2 -52 23 -96 48 -75 41 -81 47 -80 75 1 25 -5 32 -31 44 -32 14 -33 17 -33
72 0 43 -4 58 -16 63 -19 7 -163 7 -181 -1z"/>
</g>
</svg>
