<?xml version="1.0" standalone="no"?>
<!DOCTYPE svg PUBLIC "-//W3C//DTD SVG 20010904//EN"
 "http://www.w3.org/TR/2001/REC-SVG-20010904/DTD/svg10.dtd">
<svg version="1.0" xmlns="http://www.w3.org/2000/svg"
 width="309.000000pt" height="475.000000pt" viewBox="0 0 309.000000 475.000000"
 preserveAspectRatio="xMidYMid meet">
<metadata>
Created by potrace 1.15, written by Peter Selinger 2001-2017
</metadata>
<g transform="translate(0.000000,475.000000) scale(0.100000,-0.100000)"
fill="#000000" stroke="none">
<path d="M1140 3324 c-538 -47 -870 -151 -870 -272 0 -25 0 -25 -21 -6 -31 28
-70 111 -78 163 -3 25 -11 45 -16 44 -50 -9 -22 -462 90 -1454 45 -401 66
-475 157 -568 108 -109 348 -209 632 -262 142 -27 534 -38 713 -19 416 42 733
134 854 246 94 89 107 130 178 559 41 243 74 480 121 852 31 244 40 343 39
455 -1 79 -4 154 -8 168 -7 22 -9 20 -16 -20 -10 -59 -44 -111 -102 -155 l-48
-37 -6 36 c-3 20 -14 45 -24 56 -71 78 -327 155 -655 196 -100 12 -232 17
-515 19 -209 1 -400 1 -425 -1z"/>
</g>
</svg>
