<?xml version="1.0" standalone="no"?>
<!DOCTYPE svg PUBLIC "-//W3C//DTD SVG 20010904//EN"
 "http://www.w3.org/TR/2001/REC-SVG-20010904/DTD/svg10.dtd">
<svg version="1.0" xmlns="http://www.w3.org/2000/svg"
 width="149.000000pt" height="482.000000pt" viewBox="0 0 149.000000 482.000000"
 preserveAspectRatio="xMidYMid meet">
<metadata>
Created by potrace 1.13, written by Peter Selinger 2001-2015
</metadata>
<g transform="translate(0.000000,482.000000) scale(0.100000,-0.100000)"
fill="#000000" stroke="none">
<path d="M73 4629 c-66 -19 -62 122 -53 -1900 9 -1956 7 -1899 60 -2294 34
-253 39 -274 66 -281 30 -8 94 4 94 17 0 5 11 105 24 222 24 203 39 386 50
582 3 50 11 881 17 1848 12 1753 12 1759 -8 1778 -35 36 -171 51 -250 28z"/>
<path d="M1340 4597 c-75 -38 -170 -99 -192 -124 -14 -16 -16 -200 -19 -1783
l-4 -1765 23 -210 c22 -200 55 -450 71 -525 7 -34 8 -35 60 -38 30 -2 58 1 62
5 11 11 64 423 84 658 12 139 20 573 35 1915 11 954 20 1772 20 1818 l0 82
-37 0 c-23 0 -64 -13 -103 -33z"/>
</g>
</svg>
