<?xml version="1.0" standalone="no"?>
<!DOCTYPE svg PUBLIC "-//W3C//DTD SVG 20010904//EN"
 "http://www.w3.org/TR/2001/REC-SVG-20010904/DTD/svg10.dtd">
<svg version="1.0" xmlns="http://www.w3.org/2000/svg"
 width="140.000000pt" height="83.000000pt" viewBox="0 0 140.000000 83.000000"
 preserveAspectRatio="xMidYMid meet">
<metadata>
Created by potrace 1.13, written by Peter Selinger 2001-2015
</metadata>
<g transform="translate(0.000000,83.000000) scale(0.100000,-0.100000)"
fill="#000000" stroke="none">
<path d="M610 808 c-18 -10 -26 -24 -30 -54 -3 -22 -15 -53 -27 -70 -25 -35
-43 -96 -54 -184 -4 -36 -11 -81 -16 -100 l-9 -35 -118 -3 c-110 -2 -119 -4
-140 -27 -15 -16 -34 -25 -55 -25 -18 0 -40 -9 -51 -20 -18 -18 -20 -33 -20
-139 0 -69 -4 -122 -10 -126 -5 -3 -10 -10 -10 -16 0 -5 247 -9 640 -9 420 0
640 3 640 10 0 6 -4 10 -10 10 -6 0 -10 50 -10 129 0 123 -1 131 -22 145 -12
9 -37 16 -55 16 -18 0 -33 4 -33 9 0 5 -9 11 -21 14 -12 3 -18 10 -15 16 5 7
-34 11 -116 13 l-122 3 -9 35 c-5 19 -12 64 -16 100 -11 87 -29 149 -54 184
-11 15 -24 49 -29 74 -4 25 -11 48 -14 51 -13 13 -189 12 -214 -1z"/>
</g>
</svg>
